<?xml version="1.0" encoding="utf-8"?>
<!-- Generator: Adobe Illustrator 24.3.0, SVG Export Plug-In . SVG Version: 6.00 Build 0)  -->
<svg version="1.1" id="Layer_1" xmlns="http://www.w3.org/2000/svg" xmlns:xlink="http://www.w3.org/1999/xlink" x="0px" y="0px"
	 viewBox="0 0 549.72 137.76" style="enable-background:new 0 0 549.72 137.76;" xml:space="preserve">
<style type="text/css">
	.st0{fill:none;}
	.st1{fill:#0081C6;}
</style>
<rect class="st0" width="549.72" height="137.76"/>
<g>
	<g>
		<path class="st1" d="M58.8,59.47c-0.35-0.54-0.79-1-1.32-1.33c-0.51-0.32-1.07-0.54-1.67-0.66c-0.56-0.11-1.12-0.16-1.66-0.16
			c-0.56,0-1.14,0.07-1.76,0.19c-0.64,0.13-1.26,0.35-1.87,0.66c-0.62,0.31-1.2,0.74-1.73,1.27c-0.55,0.54-1.03,1.22-1.45,2.05
			L31.07,91.01c-0.1,0.21-0.16,0.47-0.16,0.74c-0.01,0.31,0.1,0.66,0.37,0.89c0.27,0.22,0.58,0.29,0.91,0.29h3.37
			c0.35,0,0.68-0.11,0.97-0.3c0.3-0.19,0.53-0.45,0.66-0.76l5.6-11.46h13.52l1.33,11.32c0.05,0.29,0.16,0.55,0.31,0.77
			c0.22,0.31,0.6,0.44,0.94,0.44h3.35c0.39,0,0.79-0.11,1.07-0.4c0.28-0.29,0.38-0.68,0.38-1.09v-0.24l-4.17-29.6
			C59.38,60.76,59.16,60.05,58.8,59.47z M45.11,75.63l7.03-12.67c0.27-0.5,0.94-0.6,1.35-0.58c0.86,0.04,0.95,0.58,0.95,0.58
			l1.48,12.67H45.11z M89.98,66.33c-0.91-0.91-2.02-1.62-3.32-2.14c-1.33-0.51-2.88-0.78-4.66-0.78c-4.03,0-7.39,1.12-9.97,3.38
			c-2.59,2.26-4.3,5.5-5.16,9.67l-0.72,3.58c-0.22,1.16-0.35,2.25-0.35,3.28c0,1.79,0.33,3.35,1.01,4.63
			c0.65,1.27,1.52,2.3,2.61,3.09c1.06,0.79,2.29,1.37,3.65,1.73c1.33,0.35,2.71,0.52,4.1,0.52h0.03c1.89,0,3.57-0.08,5.05-0.23
			c1.47-0.15,3.03-0.37,4.7-0.64c0.51-0.08,0.92-0.19,1.25-0.51c0.27-0.27,0.41-0.64,0.49-1.07l0.34-1.74l0-0.05v-0.25
			c0.02-0.28-0.13-0.62-0.39-0.8c-0.25-0.18-0.53-0.23-0.83-0.23h-0.33c-1.35,0.18-2.85,0.34-4.57,0.49
			c-1.71,0.14-3.38,0.22-4.98,0.22c-2.07,0-3.64-0.41-4.76-1.19c-1.07-0.75-1.62-1.92-1.63-3.77c0-0.46,0.03-0.93,0.08-1.43
			c0.05-0.48,0.16-0.98,0.34-1.54L72,80.3h18.11c0.48,0,0.95-0.13,1.26-0.49c0.23-0.29,0.37-0.64,0.46-1.04l0.44-2.16
			c0.23-1.11,0.35-2.18,0.35-3.17c0-1.38-0.21-2.68-0.63-3.9C91.54,68.31,90.87,67.23,89.98,66.33z M86.44,75.85H72.86
			c0.25-1.02,0.59-1.93,1.03-2.79c0.49-0.94,1.09-1.76,1.82-2.47c0.7-0.71,1.52-1.25,2.45-1.63c0.92-0.38,1.96-0.58,3.12-0.58
			c3.83,0.08,5.37,1.52,5.45,4.91C86.73,74.06,86.63,74.91,86.44,75.85z M112.03,67.09l0.39-2.15l0.01-0.05v-0.25
			c0.01-0.35-0.15-0.74-0.46-0.95c-0.31-0.22-0.65-0.28-1.04-0.28h-0.11c-1.33,0-2.68,0.16-4.04,0.48c-1.1,0.25-2.23,0.75-3.4,1.48
			v-0.01v-0.26c0-0.36-0.09-0.72-0.36-0.98c-0.27-0.26-0.63-0.35-0.98-0.35h-2.59c-0.41,0-0.82,0.15-1.14,0.43
			c-0.3,0.25-0.53,0.6-0.63,0.97l-4.93,26.16v0.26c0,0.36,0.1,0.72,0.36,0.98c0.25,0.26,0.61,0.35,0.97,0.35h2.71
			c0.42,0.01,0.82-0.15,1.15-0.41c0.33-0.26,0.58-0.6,0.68-0.99l3.99-21.24c1.25-0.7,2.4-1.19,3.45-1.47
			c1.11-0.29,2.44-0.44,3.98-0.44h0.17C111.07,68.42,111.89,67.94,112.03,67.09z M134.38,66.27c-0.92-0.9-2.06-1.61-3.38-2.11
			c-1.34-0.5-2.88-0.75-4.62-0.75c-8.39-0.05-13.6,4.4-15.13,12.9l-0.71,3.89c-0.08,0.5-0.15,0.97-0.21,1.44
			c-0.06,0.49-0.08,0.97-0.08,1.47c0,1.48,0.23,2.85,0.69,4.09c0.46,1.24,1.15,2.32,2.05,3.23c0.9,0.91,2.03,1.61,3.36,2.12
			c1.33,0.49,2.86,0.74,4.57,0.74c2.21,0,4.2-0.29,5.93-0.9c1.74-0.6,3.23-1.46,4.49-2.59c1.24-1.11,2.26-2.48,3.03-4.07
			c0.77-1.58,1.35-3.36,1.73-5.34l0.72-3.89c0.08-0.5,0.14-0.98,0.2-1.47c0.06-0.49,0.08-0.99,0.08-1.49c0-1.45-0.22-2.8-0.67-4.04
			C135.99,68.26,135.3,67.18,134.38,66.27z M131.16,74.83c-0.03,0.46-0.1,0.94-0.21,1.48l-0.71,3.9c-0.22,1.22-0.58,2.32-1.08,3.31
			c-0.51,0.99-1.13,1.84-1.86,2.55c-0.72,0.7-1.55,1.26-2.5,1.66c-0.94,0.39-1.98,0.6-3.13,0.6c-2.09,0-3.5-0.45-4.28-1.23
			c-0.81-0.79-1.25-2.02-1.25-3.78c0-0.85,0.1-1.83,0.32-2.93l0.72-3.89c0.46-2.56,1.44-4.52,2.91-5.97
			c1.46-1.43,3.28-2.15,5.6-2.16c2.09,0,3.49,0.47,4.28,1.28c0.82,0.83,1.26,2.07,1.26,3.83C131.22,73.92,131.2,74.37,131.16,74.83z
			 M150.34,56.2c0-0.34-0.08-0.69-0.34-0.94c-0.26-0.25-0.61-0.34-0.94-0.34h-2.88c-0.85-0.06-1.62,0.55-1.72,1.39l-6.62,35.03v0.26
			c0,0.35,0.08,0.7,0.34,0.97c0.24,0.26,0.59,0.36,0.92,0.36h2.9c0.41,0.01,0.82-0.16,1.12-0.44c0.28-0.26,0.49-0.59,0.59-0.96
			l6.63-35.08V56.2z M158.55,63.78h-2.64c-0.41,0-0.82,0.15-1.15,0.42c-0.33,0.26-0.57,0.6-0.68,0.99l-4.93,26.16v0.26
			c0,0.36,0.11,0.73,0.39,0.99c0.27,0.25,0.63,0.34,0.99,0.34h2.67c0.42,0,0.82-0.15,1.15-0.41c0.33-0.26,0.57-0.59,0.67-0.99
			l4.93-26.16v-0.26c0-0.36-0.1-0.74-0.39-0.99C159.29,63.86,158.93,63.78,158.55,63.78z M155.41,61.06h2.98c0.36,0,0.7-0.06,1-0.27
			c0.19-0.14,0.43-0.35,0.73-0.63l5.57-4.67c0.24-0.22,0.44-0.47,0.45-0.85c-0.01-0.64-0.68-0.81-1.06-0.83h-3.65
			c-0.39,0.02-0.75,0.08-1.04,0.28c-0.2,0.15-0.44,0.35-0.74,0.63l-4.7,4.57c-0.25,0.25-0.47,0.53-0.49,0.94
			C154.45,60.79,155.05,61.06,155.41,61.06z M185.66,65.88c-0.73-0.78-1.65-1.38-2.76-1.82c-1.13-0.43-2.45-0.64-3.97-0.64
			c-1.92,0-3.59,0.24-5.03,0.75c-1.08,0.38-2.14,0.82-3.2,1.32l0.02-0.1l0.01-0.04v-0.24c0.01-0.32-0.11-0.63-0.3-0.87
			c-0.25-0.34-0.66-0.47-1.04-0.46h-2.71c-0.41,0-0.82,0.16-1.13,0.43c-0.31,0.25-0.53,0.6-0.63,0.98l-4.93,26.16v0.26
			c-0.01,0.31,0.1,0.63,0.29,0.87c0.24,0.33,0.64,0.46,1.02,0.46h2.73c0.42,0.01,0.82-0.15,1.15-0.41c0.33-0.26,0.57-0.59,0.67-0.98
			l4.05-21.36c1.63-0.72,3-1.18,4.07-1.42c1.15-0.25,2.23-0.37,3.26-0.37c1.98-0.02,3.22,0.36,3.73,0.88
			c0.58,0.57,0.89,1.36,0.9,2.5c0,0.38-0.03,0.81-0.08,1.29c-0.05,0.49-0.12,0.97-0.2,1.44l-2.87,16.82v0.24c0,0.36,0.1,0.74,0.38,1
			c0.28,0.25,0.64,0.34,1.01,0.34h2.66c0.41,0.01,0.81-0.16,1.14-0.42c0.33-0.26,0.57-0.59,0.67-0.98l2.88-16.82
			c0.19-0.98,0.28-1.94,0.28-2.86c0.01-1.14-0.16-2.22-0.5-3.23C186.89,67.56,186.36,66.65,185.66,65.88z M213.57,66.33
			c-0.9-0.91-2.02-1.62-3.32-2.14c-1.33-0.51-2.88-0.78-4.66-0.78c-4.03-0.01-7.38,1.11-9.96,3.37c-2.59,2.26-4.3,5.5-5.16,9.67
			l-0.72,3.58c-0.23,1.16-0.35,2.25-0.35,3.27c0,1.8,0.32,3.36,1,4.63c0.66,1.26,1.53,2.3,2.6,3.09c1.06,0.79,2.3,1.36,3.65,1.73
			c1.34,0.35,2.73,0.52,4.13,0.52c1.9,0,3.58-0.08,5.06-0.23c1.46-0.16,3.03-0.37,4.68-0.65c0.52-0.08,0.93-0.19,1.26-0.51
			c0.27-0.28,0.4-0.64,0.49-1.07l0.34-1.75v-0.04v-0.25c0.02-0.28-0.13-0.62-0.39-0.8c-0.26-0.18-0.53-0.23-0.84-0.23h-0.33
			c-1.35,0.18-2.85,0.34-4.57,0.49c-1.71,0.14-3.38,0.22-4.97,0.22c-2.08,0-3.65-0.41-4.77-1.19c-1.06-0.75-1.62-1.92-1.62-3.77
			c0-0.46,0.03-0.93,0.08-1.42c0.05-0.48,0.16-0.99,0.34-1.54l0.07-0.25h18.1c0.48,0,0.94-0.13,1.25-0.49
			c0.23-0.29,0.37-0.64,0.47-1.03l0.44-2.16c0.22-1.12,0.34-2.18,0.34-3.17c0-1.38-0.21-2.68-0.63-3.91
			C215.14,68.31,214.48,67.24,213.57,66.33z M210.03,75.85h-13.58c0.25-1.02,0.59-1.93,1.03-2.79c0.5-0.94,1.09-1.76,1.81-2.47
			c0.71-0.71,1.53-1.25,2.46-1.64c0.92-0.38,1.96-0.57,3.11-0.57c3.83,0.08,5.38,1.52,5.46,4.91
			C210.32,74.06,210.23,74.91,210.03,75.85z M244.58,65.88c-0.02-0.76-0.7-1.15-1.41-1.27c-1.4-0.35-2.96-0.62-4.67-0.85
			c-1.72-0.22-3.41-0.33-5.09-0.33c-1.7,0-3.34,0.2-4.94,0.6c-1.6,0.41-3.07,1.09-4.39,2.02c-1.32,0.95-2.47,2.19-3.42,3.73
			c-0.96,1.55-1.66,3.46-2.11,5.72l-0.99,5.06c-0.23,1.08-0.34,2.14-0.34,3.17c0,1.62,0.23,3.04,0.72,4.25
			c0.48,1.21,1.14,2.2,1.97,2.99c0.83,0.79,1.8,1.37,2.92,1.75c1.09,0.37,2.25,0.57,3.47,0.57h0.03c0.94,0,1.8-0.06,2.57-0.19
			c0.76-0.12,1.51-0.32,2.22-0.59c0.7-0.26,1.41-0.59,2.11-0.98c0.41-0.21,0.83-0.48,1.28-0.75l-0.08,0.42l0,0.04v0.35
			c0,0.31,0.08,0.63,0.26,0.89c0.28,0.36,0.69,0.44,1.08,0.44H238c0.41,0.01,0.81-0.16,1.13-0.43c0.31-0.26,0.53-0.6,0.63-0.97
			l4.75-25.13C244.56,66.23,244.58,66.06,244.58,65.88z M234.94,85.71c-1.46,0.89-2.77,1.56-3.93,2.04c-1.2,0.49-2.4,0.73-3.62,0.73
			c-1.22,0-2.21-0.35-3.06-1.06c-0.77-0.63-1.23-1.84-1.23-3.75c0-0.36,0.02-0.74,0.06-1.13c0.03-0.4,0.08-0.77,0.15-1.12l0.99-5.27
			c0.5-2.66,1.47-4.62,2.88-5.93c1.38-1.3,3.43-1.99,6.22-1.99c1.17,0,2.15,0.06,2.95,0.15c0.63,0.08,1.23,0.17,1.81,0.26
			L234.94,85.71z M266.84,64.09c-0.59-0.09-1.15-0.2-1.66-0.28c-0.53-0.09-1.11-0.16-1.73-0.22c-0.62-0.05-1.31-0.09-2.06-0.13
			c-0.77-0.03-1.69-0.05-2.75-0.05c-1.4,0-2.8,0.12-4.2,0.36c-1.43,0.25-2.71,0.69-3.83,1.34c-1.12,0.65-2.04,1.52-2.76,2.59
			c-0.74,1.11-1.09,2.49-1.09,4.1c0,2.51,1.7,4.72,4.83,6.62l5.04,3.02c1.29,0.74,2.12,1.38,2.46,1.83
			c0.38,0.48,0.53,0.92,0.54,1.37c-0.01,0.75-0.16,1.33-0.45,1.8c-0.31,0.5-0.7,0.87-1.19,1.16c-0.52,0.29-1.14,0.51-1.84,0.66
			c-0.72,0.14-1.46,0.22-2.25,0.22c-0.46,0-1.05-0.01-1.76-0.05c-0.72-0.03-1.47-0.08-2.26-0.12c-0.78-0.05-1.57-0.11-2.34-0.19
			c-0.77-0.07-1.48-0.13-2.14-0.19h-0.38c-0.72-0.05-1.43,0.44-1.55,1.17l-0.34,1.81l0,0.04v0.21c-0.01,0.38,0.16,0.8,0.5,1.02
			c0.24,0.16,0.51,0.27,0.81,0.35c0.67,0.14,1.37,0.26,2.14,0.36c0.77,0.11,1.54,0.19,2.33,0.24c0.77,0.05,1.53,0.09,2.27,0.13
			c0.74,0.03,1.41,0.05,2.01,0.05h0.04c1.53,0,3.02-0.15,4.48-0.44c1.48-0.3,2.8-0.8,3.96-1.5c1.16-0.7,2.1-1.64,2.79-2.81
			c0.72-1.19,1.06-2.65,1.06-4.36c0-1.23-0.37-2.4-1.1-3.46c-0.75-1.09-2.08-2.19-4.01-3.38l-4.98-3.01
			c-0.95-0.57-1.67-1.1-2.15-1.57c-0.45-0.45-0.63-0.87-0.63-1.38c0-0.67,0.16-1.14,0.44-1.49c0.32-0.4,0.72-0.71,1.23-0.96
			c0.52-0.25,1.09-0.42,1.73-0.52c0.65-0.1,1.28-0.15,1.88-0.15c1.53,0,3.02,0.04,4.46,0.13c1.45,0.08,2.65,0.17,3.59,0.28h0.22
			c0.79,0.05,1.51-0.51,1.61-1.3l0.28-1.69l0.01-0.04v-0.25C268.13,64.72,267.51,64.17,266.84,64.09z"/>
		<path class="st1" d="M343.4,65.31c-1.25-0.28-2.76-0.54-4.54-0.79c-1.77-0.26-3.5-0.39-5.16-0.39c-2.08,0-3.95,0.22-5.59,0.68
			c-1.65,0.45-3.1,1.18-4.35,2.19c-1.25,1.02-2.28,2.33-3.1,3.94c-0.82,1.61-1.45,3.58-1.9,5.92l-0.72,3.74
			c-0.23,1.24-0.34,2.41-0.34,3.47c0,1.63,0.26,3.05,0.79,4.24c0.53,1.2,1.27,2.18,2.2,2.94c0.93,0.76,2.05,1.32,3.35,1.68
			c1.29,0.36,2.69,0.55,4.19,0.55c0.41,0,0.91-0.03,1.48-0.08c0.58-0.05,1.17-0.1,1.78-0.18c0.61-0.06,1.18-0.14,1.72-0.22
			c0.37-0.06,0.71-0.11,1-0.16l-0.05,0.24c-0.22,1.15-0.49,2.1-0.81,2.86c-0.32,0.76-0.76,1.35-1.3,1.8
			c-0.56,0.45-1.25,0.77-2.08,0.96c-0.84,0.21-1.86,0.31-3.06,0.31c-0.73,0-1.53-0.03-2.39-0.08c-0.86-0.06-1.73-0.1-2.59-0.15
			c-0.86-0.06-1.65-0.11-2.39-0.18c-0.73-0.08-1.33-0.14-1.81-0.2h-0.09h-0.11c-0.34,0-0.64,0.06-0.9,0.24
			c-0.26,0.17-0.43,0.44-0.51,0.77l-0.29,1.49v0.02v0.04h0.01c-0.08,0.11-0.05,0.18-0.06,0.24c0.01,0.55,0.48,0.9,1.13,1.06
			c0.76,0.22,1.96,0.42,3.63,0.62c1.67,0.21,3.55,0.32,5.66,0.32c2,0,3.75-0.16,5.24-0.47c1.5-0.31,2.8-0.86,3.88-1.65
			c1.09-0.8,1.98-1.87,2.67-3.21c0.7-1.35,1.22-3.02,1.6-5.01l4.97-26.11v-0.02c0-0.05,0.01-0.08,0.01-0.08
			c0.03-0.1,0.05-0.2,0.05-0.28C344.61,65.8,344.09,65.44,343.4,65.31z M335.07,88.67c-0.4,0.08-0.84,0.15-1.32,0.21
			c-0.57,0.07-1.14,0.13-1.71,0.19c-0.57,0.05-1.11,0.07-1.65,0.09c-0.53,0.02-1,0.03-1.39,0.03c-2.07,0-3.58-0.38-4.52-1.07
			c-0.92-0.68-1.41-1.94-1.41-3.84c0-0.5,0.02-1.06,0.08-1.67c0.06-0.6,0.16-1.24,0.3-1.91l0.72-3.75c0.58-2.96,1.59-5.12,2.99-6.48
			c1.41-1.36,3.34-2.05,5.87-2.05c1.17,0,2.28,0.06,3.34,0.18c0.94,0.1,1.75,0.22,2.44,0.34L335.07,88.67z M428.69,58.92v-0.23
			c0-0.65-0.47-1.07-1.14-1.07h-2.82c-0.35-0.01-0.69,0.13-0.99,0.36c-0.3,0.23-0.49,0.52-0.58,0.85l-0.29,2.22v0.23
			c0,0.66,0.48,1.08,1.14,1.08h2.83c0.35,0,0.68-0.14,0.98-0.36c0.29-0.23,0.49-0.51,0.58-0.86 M318.21,68.58
			c0.83,0.02,1.46-0.36,1.58-1.07l0.39-2.16l0.01-0.02V65.1c-0.01-0.64-0.55-0.97-1.25-0.97h-0.11c-1.31,0-2.64,0.16-3.98,0.46
			c-1.21,0.29-2.48,0.88-3.83,1.78l0.11-0.56l0-0.01v-0.24c0-0.64-0.45-1.07-1.09-1.07h-2.6c-0.35,0-0.69,0.13-0.96,0.38
			c-0.27,0.22-0.47,0.51-0.55,0.84l-4.92,26.12v0.23c0,0.64,0.44,1.07,1.08,1.07h2.72c0.35,0,0.68-0.12,0.98-0.35
			c0.29-0.24,0.5-0.53,0.59-0.85l4.01-21.34c1.3-0.74,2.51-1.26,3.61-1.55c1.14-0.3,2.48-0.45,4.05-0.45H318.21z M411.13,68.79h5.74
			c0.36,0,0.7-0.14,0.98-0.38c0.27-0.23,0.46-0.52,0.54-0.84l0.34-1.76l0-0.01v-0.24c0-0.65-0.47-1.07-1.14-1.07h-5.66l0.77-4.29
			v-0.18c0-0.56-0.37-0.98-0.92-0.98h-0.16l-2.96,0.41c-0.77,0.09-1.31,0.54-1.43,1.23l-0.67,3.8l-3.67,0.1
			c-0.34,0-0.66,0.1-0.92,0.31c-0.26,0.21-0.45,0.48-0.54,0.8l-0.28,1.4l0,0.02v0.18c-0.02,0.59,0.47,0.98,1.1,1.03l3.51,0.43
			l-3.34,17.58c-0.07,0.41-0.12,0.77-0.16,1.06c-0.04,0.31-0.06,0.63-0.06,0.98c-0.01,1.83,0.67,3.2,2.01,3.98
			c1.3,0.76,2.91,1.14,4.81,1.14c0.52,0,1.1-0.03,1.73-0.08c0.63-0.04,1.22-0.1,1.78-0.18c0.44-0.07,0.75-0.18,0.97-0.37
			c0.19-0.17,0.32-0.41,0.4-0.68l0.34-1.85l0-0.02v-0.23c0.01-0.29-0.1-0.6-0.39-0.69c-0.18-0.07-0.39-0.09-0.63-0.09h-3.37
			c-0.86,0-1.49-0.09-1.83-0.24c-0.27-0.1-0.46-0.42-0.46-1.13c0-0.35,0.06-0.84,0.16-1.45L411.13,68.79z M483.38,66.33
			c-0.01-0.58-0.52-0.9-1.2-1.02c-1.4-0.35-2.95-0.64-4.66-0.86c-1.7-0.22-3.39-0.33-5.06-0.33c-1.67,0-3.3,0.2-4.86,0.6
			c-1.57,0.4-3.01,1.06-4.31,1.98c-1.3,0.93-2.42,2.15-3.35,3.66c-0.94,1.51-1.63,3.4-2.08,5.63l-0.99,5.07
			c-0.23,1.07-0.34,2.11-0.34,3.12c0,1.6,0.23,2.99,0.71,4.16c0.48,1.18,1.11,2.15,1.91,2.91c0.8,0.76,1.75,1.32,2.83,1.69
			c1.07,0.37,2.22,0.55,3.42,0.55c0.93,0,1.77-0.06,2.53-0.19c0.75-0.12,1.47-0.31,2.17-0.58c0.7-0.26,1.39-0.57,2.08-0.96
			c0.55-0.3,1.13-0.65,1.76-1.06l-0.18,1.01v0.14v0.21c0,0.28,0.07,0.54,0.21,0.73c0.2,0.26,0.51,0.34,0.87,0.34h2.21
			c0.35,0,0.68-0.13,0.97-0.37c0.27-0.23,0.46-0.52,0.54-0.84l4.76-25.13C483.36,66.68,483.38,66.52,483.38,66.33z M474.22,86.32
			c-1.49,0.92-2.85,1.63-4.06,2.12c-1.22,0.5-2.46,0.75-3.71,0.75c-1.27-0.01-2.34-0.38-3.24-1.12c-0.85-0.7-1.31-2.01-1.31-3.95
			c0-0.37,0.02-0.76,0.05-1.15c0.04-0.4,0.09-0.78,0.16-1.15l1-5.27c0.51-2.69,1.5-4.71,2.96-6.08c1.45-1.35,3.56-2.05,6.39-2.05
			c1.18,0,2.17,0.06,2.98,0.15l0.04-0.26l-0.03,0.26c0.73,0.09,1.42,0.2,2.08,0.31L474.22,86.32z M506.89,65.87
			c0.02-0.57-0.42-0.98-1.04-1.07c-0.6-0.1-1.15-0.2-1.66-0.28c-0.53-0.08-1.1-0.16-1.71-0.21c-0.61-0.06-1.29-0.1-2.05-0.13
			c-0.76-0.03-1.67-0.05-2.75-0.05c-1.37,0-2.75,0.12-4.14,0.36c-1.41,0.24-2.66,0.68-3.75,1.32c-1.09,0.63-1.99,1.47-2.68,2.51
			c-0.7,1.05-1.05,2.39-1.05,3.95c0.01,2.38,1.62,4.52,4.71,6.41l5.04,3.02c1.29,0.75,2.15,1.38,2.53,1.87
			c0.4,0.53,0.59,1.02,0.59,1.53c0,0.79-0.17,1.42-0.49,1.94c-0.33,0.53-0.76,0.93-1.29,1.23c-0.54,0.32-1.18,0.55-1.91,0.69
			c-0.74,0.15-1.5,0.23-2.29,0.23c-0.47,0-1.06-0.02-1.78-0.05c-0.72-0.04-1.47-0.07-2.26-0.13c-0.79-0.05-1.57-0.11-2.34-0.19
			c-0.77-0.06-1.49-0.13-2.15-0.2h-0.36c-0.65-0.02-1.18,0.35-1.3,0.97l-0.34,1.8l0,0.02v0.18c-0.01,0.33,0.13,0.64,0.39,0.8
			c0.21,0.13,0.46,0.23,0.74,0.31c0.64,0.15,1.34,0.26,2.1,0.36c0.76,0.11,1.54,0.19,2.31,0.24c0.77,0.05,1.53,0.09,2.26,0.13
			c0.75,0.03,1.41,0.05,2.01,0.05c1.53,0,3.01-0.15,4.47-0.44c1.46-0.3,2.75-0.78,3.87-1.46c1.13-0.69,2.03-1.6,2.71-2.72
			c0.69-1.14,1.03-2.55,1.03-4.23c0-1.18-0.35-2.29-1.06-3.31c-0.71-1.05-2.02-2.14-3.92-3.3l-4.98-3.02
			c-0.96-0.58-1.7-1.11-2.19-1.61c-0.49-0.48-0.7-0.98-0.7-1.55c0-0.71,0.17-1.25,0.49-1.66c0.35-0.43,0.78-0.77,1.32-1.03
			c0.54-0.26,1.15-0.45,1.81-0.54c0.66-0.1,1.31-0.15,1.92-0.15c1.53,0,3.03,0.03,4.48,0.12c1.45,0.09,2.65,0.19,3.6,0.29h0.2
			c0.7,0.02,1.24-0.4,1.35-1.08l0.27-1.69l-0.25-0.05h0.25V65.87z M453.11,66.51c-0.69-0.75-1.58-1.33-2.66-1.75
			c-1.09-0.43-2.38-0.63-3.88-0.63c-1.9,0-3.54,0.24-4.93,0.74c-1.23,0.42-2.43,0.93-3.62,1.52l0.09-0.58v-0.25
			c0-0.25-0.08-0.51-0.25-0.72c-0.19-0.26-0.5-0.36-0.83-0.36h-2.71c-0.35,0-0.69,0.13-0.96,0.36s-0.47,0.53-0.55,0.85l-4.93,26.12
			v0.23c0,0.26,0.1,0.5,0.25,0.72c0.18,0.25,0.48,0.35,0.81,0.35h2.72c0.36,0,0.7-0.12,0.99-0.36c0.29-0.22,0.5-0.52,0.59-0.85
			l4.06-21.48c1.7-0.75,3.12-1.24,4.24-1.49c1.16-0.25,2.27-0.38,3.31-0.38c2,0,3.31,0.35,3.9,0.95c0.65,0.63,0.97,1.5,0.98,2.69
			c0,0.39-0.03,0.84-0.08,1.33c-0.06,0.49-0.12,0.96-0.19,1.44l-3.2,16.84v0.23c0,0.65,0.47,1.07,1.14,1.07h2.65
			c0.35,0,0.69-0.12,0.98-0.35c0.29-0.23,0.5-0.53,0.58-0.85l3.21-16.84c0.19-0.97,0.28-1.91,0.28-2.82c0-1.11-0.16-2.16-0.48-3.14
			C454.31,68.12,453.81,67.25,453.11,66.51z M396.89,66.51c-0.69-0.75-1.58-1.33-2.67-1.76c-1.08-0.43-2.38-0.63-3.87-0.63
			c-1.9,0-3.55,0.24-4.95,0.74c-1.21,0.42-2.42,0.93-3.61,1.52l0.09-0.57v-0.25c0-0.26-0.09-0.51-0.24-0.72
			c-0.19-0.26-0.5-0.36-0.84-0.36h-2.71c-0.35,0-0.69,0.13-0.97,0.36c-0.27,0.23-0.47,0.52-0.55,0.85l-4.92,26.12v0.23
			c0,0.26,0.09,0.51,0.24,0.72c0.19,0.25,0.5,0.35,0.82,0.35h2.72c0.35,0,0.69-0.12,0.98-0.35c0.29-0.24,0.49-0.53,0.59-0.85
			l4.07-21.48c1.7-0.76,3.12-1.25,4.24-1.49c1.17-0.25,2.26-0.38,3.32-0.38c2,0,3.3,0.35,3.9,0.95c0.64,0.63,0.97,1.5,0.97,2.69
			c0,0.39-0.02,0.84-0.08,1.33c-0.05,0.49-0.11,0.97-0.19,1.44l-3.2,16.84v0.23c0,0.65,0.47,1.07,1.14,1.07h2.65
			c0.36,0,0.7-0.12,0.99-0.36c0.29-0.22,0.49-0.52,0.58-0.85l3.21-16.84c0.18-0.97,0.28-1.91,0.28-2.82c0-1.12-0.16-2.16-0.48-3.15
			C398.09,68.13,397.58,67.25,396.89,66.51z M368.45,66.96c-0.87-0.88-1.95-1.57-3.23-2.07c-1.29-0.51-2.81-0.77-4.56-0.77
			c-3.99,0-7.26,1.11-9.8,3.31c-2.53,2.21-4.22,5.39-5.07,9.53l-0.72,3.59c-0.22,1.13-0.34,2.22-0.34,3.22
			c0,1.76,0.31,3.27,0.97,4.52c0.64,1.23,1.49,2.23,2.53,2.99c1.04,0.78,2.23,1.33,3.56,1.68c1.32,0.35,2.66,0.52,4.04,0.52h0.03
			c1.89,0,3.55-0.08,5.02-0.22c1.47-0.16,3.02-0.37,4.68-0.65c0.5-0.07,0.87-0.18,1.1-0.43c0.23-0.22,0.35-0.54,0.43-0.94l0.33-1.75
			l0-0.03v-0.22c0-0.5-0.45-0.77-0.97-0.77h-0.33c-1.32,0.17-2.82,0.34-4.55,0.49c-1.72,0.15-3.39,0.23-5,0.23
			c-2.1,0-3.74-0.43-4.91-1.24c-1.15-0.8-1.73-2.09-1.74-3.98c0-0.46,0.03-0.95,0.08-1.46c0.05-0.49,0.16-1.02,0.35-1.59l0.11-0.43
			h18.29c0.44,0,0.83-0.12,1.06-0.4c0.2-0.25,0.33-0.56,0.41-0.93l0.44-2.16c0.22-1.1,0.34-2.14,0.34-3.12
			c0-1.35-0.21-2.63-0.62-3.82C369.98,68.89,369.33,67.85,368.45,66.96z M365.32,76.5l-0.01,0.06h-14.1
			c0.25-1.15,0.63-2.2,1.13-3.16c0.5-0.96,1.12-1.8,1.86-2.55c0.73-0.72,1.58-1.28,2.54-1.68c0.96-0.39,2.03-0.59,3.22-0.59
			c3.9,0.04,5.67,1.66,5.7,5.17C365.65,74.57,365.54,75.5,365.32,76.5z M426.02,65.25h-2.65c-0.35,0-0.69,0.13-0.99,0.36
			c-0.29,0.22-0.49,0.52-0.59,0.84l-4.73,25.37v0.23c0,0.65,0.48,1.07,1.14,1.07h2.67c0.35,0,0.68-0.12,0.97-0.35
			c0.29-0.24,0.49-0.53,0.59-0.85l4.73-25.36v-0.24C427.16,65.67,426.68,65.25,426.02,65.25z M293.75,59.67
			c-0.35-0.54-0.8-1-1.32-1.33c-0.52-0.32-1.07-0.54-1.67-0.66c-0.57-0.11-1.12-0.16-1.67-0.16c-0.56,0-1.15,0.07-1.76,0.19
			c-0.64,0.13-1.26,0.36-1.87,0.66c-0.62,0.31-1.2,0.74-1.74,1.26c-0.54,0.54-1.02,1.23-1.45,2.05l-16.26,29.53
			c-0.12,0.21-0.17,0.47-0.17,0.74c0,0.32,0.11,0.66,0.37,0.89c0.26,0.22,0.59,0.29,0.91,0.29h3.37c0.35,0,0.68-0.11,0.97-0.3
			c0.29-0.2,0.54-0.45,0.66-0.76l5.6-11.47h13.52l1.32,11.32c0.06,0.29,0.16,0.55,0.31,0.77c0.22,0.31,0.6,0.44,0.94,0.44h3.34
			c0.39,0,0.79-0.1,1.07-0.4c0.28-0.29,0.38-0.68,0.38-1.08V91.4l-4.17-29.6C294.34,60.96,294.1,60.25,293.75,59.67z M280.05,75.83
			l7.03-12.68c0.26-0.5,0.94-0.59,1.34-0.58c0.87,0.04,0.95,0.58,0.95,0.58l1.49,12.68H280.05z"/>
	</g>
	<path class="st1" d="M478.85,44.35l-37.14,6.72h78.55c0-2.66-2.54-5.53-8.62-5.5h-3.4c0.48,0.97,0.2,2.18-0.71,2.84
		c-1.02,0.73-2.43,0.5-3.16-0.51c-0.73-1.01-0.5-2.43,0.51-3.15l4.95-3.28c4.64-2.94,4.18-7.25-2.17-7.64l-52.22-3.25
		c0,0,16.6,5.14,25.31,8.38C485.7,40.8,484.73,43.33,478.85,44.35"/>
</g>
</svg>
