<svg width="231" height="210" viewBox="0 0 231 210" fill="none" xmlns="http://www.w3.org/2000/svg">
<path d="M108.249 80.947L101.167 70.1691L87.3333 91.2198H149.583L125.375 56.1353L108.249 80.947Z" fill="black"/>
<path d="M97.729 63.1517C103.47 63.1517 108.125 58.4299 108.125 52.6053C108.125 46.7806 103.47 42.0588 97.729 42.0588C91.9876 42.0588 87.3333 46.7806 87.3333 52.6053C87.3333 58.4299 91.9876 63.1517 97.729 63.1517Z" fill="black"/>
<path d="M163.417 14.0339H73.5C65.1585 14.0339 52.75 19.6404 52.75 35.0847V133.321C52.75 148.766 65.1585 154.372 73.5 154.372H177.25V140.338H73.583C70.3875 140.254 66.5833 138.977 66.5833 133.321C66.5833 127.666 70.3875 126.389 73.583 126.304H177.25V28.0678C177.25 20.3281 171.046 14.0339 163.417 14.0339ZM163.417 112.271H66.5833V35.0847C66.5833 29.429 70.3875 28.152 73.5 28.0678H163.417V112.271Z" fill="black"/>
<path d="M73.2549 176.702C74.8183 176.702 76.2029 176.948 77.4089 177.439C78.6373 177.908 79.7763 178.59 80.8259 179.483L78.2464 182.163C77.4201 181.538 76.6384 181.08 75.9014 180.789C75.1868 180.499 74.3716 180.354 73.4559 180.354C71.6916 180.354 70.2623 181.057 69.1679 182.464C68.0959 183.849 67.5599 185.971 67.5599 188.829C67.5599 191.844 67.9731 194.011 68.7994 195.328C69.6481 196.624 70.9546 197.271 72.7189 197.271C73.9919 197.271 75.1421 196.992 76.1694 196.434V190.772H72.9199L72.4174 187.188H80.9599V198.611C79.7539 199.348 78.4474 199.929 77.0404 200.353C75.6558 200.755 74.2488 200.956 72.8194 200.956C69.4024 200.956 66.8118 199.929 65.0474 197.874C63.2831 195.82 62.4009 192.794 62.4009 188.796C62.4009 186.272 62.8811 184.095 63.8414 182.263C64.8018 180.432 66.0971 179.047 67.7274 178.109C69.3801 177.171 71.2226 176.702 73.2549 176.702ZM98.5014 195.496C98.5014 196.188 98.6019 196.702 98.8029 197.037C99.0039 197.35 99.3389 197.584 99.8079 197.74L98.8029 200.889C97.7532 200.8 96.8934 200.554 96.2234 200.152C95.5757 199.75 95.0732 199.125 94.7159 198.276C93.5545 200.063 91.779 200.956 89.3894 200.956C87.625 200.956 86.218 200.454 85.1684 199.449C84.141 198.422 83.6274 197.093 83.6274 195.462C83.6274 193.519 84.3309 192.034 85.7379 191.007C87.1449 189.98 89.166 189.466 91.8014 189.466H93.8449V188.595C93.8449 187.501 93.5992 186.741 93.1079 186.317C92.6165 185.893 91.8014 185.68 90.6624 185.68C89.4117 185.68 87.8484 185.993 85.9724 186.618L84.9004 183.436C87.1114 182.565 89.3 182.129 91.4664 182.129C93.8784 182.129 95.6539 182.654 96.7929 183.704C97.9319 184.731 98.5014 186.272 98.5014 188.327V195.496ZM90.6959 197.539C92.0359 197.539 93.0855 196.881 93.8449 195.563V192.179H92.2704C89.702 192.179 88.4179 193.14 88.4179 195.06C88.4179 195.842 88.6077 196.456 88.9874 196.903C89.3894 197.327 89.9589 197.539 90.6959 197.539ZM107.349 200.956C105.897 200.956 104.77 200.543 103.966 199.717C103.162 198.868 102.76 197.673 102.76 196.132V175.597L107.517 175.061V195.998C107.517 196.78 107.84 197.171 108.488 197.171C108.845 197.171 109.158 197.104 109.426 196.97L110.398 200.353C109.482 200.755 108.466 200.956 107.349 200.956ZM127.684 191.141C127.684 191.364 127.651 191.978 127.584 192.983H116.495C116.651 194.591 117.087 195.73 117.802 196.4C118.516 197.07 119.488 197.405 120.716 197.405C121.475 197.405 122.19 197.283 122.86 197.037C123.53 196.791 124.256 196.4 125.038 195.864L127.014 198.544C125.026 200.152 122.782 200.956 120.281 200.956C117.489 200.956 115.345 200.119 113.849 198.444C112.352 196.769 111.604 194.502 111.604 191.643C111.604 189.834 111.917 188.215 112.542 186.786C113.19 185.334 114.117 184.195 115.323 183.369C116.551 182.543 118.003 182.129 119.678 182.129C122.201 182.129 124.167 182.922 125.574 184.508C126.981 186.094 127.684 188.305 127.684 191.141ZM122.961 189.801C122.961 186.853 121.9 185.379 119.778 185.379C118.795 185.379 118.025 185.747 117.467 186.484C116.931 187.199 116.607 188.372 116.495 190.002H122.961V189.801ZM140.306 182.163C140.842 182.163 141.434 182.252 142.082 182.431L141.278 187.02C140.652 186.864 140.128 186.786 139.703 186.786C138.654 186.786 137.838 187.154 137.258 187.891C136.677 188.628 136.219 189.745 135.884 191.241V200.42H131.127V182.665H135.248L135.683 186.116C136.108 184.865 136.722 183.894 137.526 183.201C138.352 182.509 139.279 182.163 140.306 182.163ZM149.199 182.665V200.42H144.442V182.665H149.199ZM149.3 172.716L151.176 176.367L143.471 179.449L142.131 177.004L149.3 172.716ZM167.464 195.496C167.464 196.188 167.565 196.702 167.766 197.037C167.967 197.35 168.302 197.584 168.771 197.74L167.766 200.889C166.716 200.8 165.856 200.554 165.186 200.152C164.539 199.75 164.036 199.125 163.679 198.276C162.517 200.063 160.742 200.956 158.352 200.956C156.588 200.956 155.181 200.454 154.131 199.449C153.104 198.422 152.59 197.093 152.59 195.462C152.59 193.519 153.294 192.034 154.701 191.007C156.108 189.98 158.129 189.466 160.764 189.466H162.808V188.595C162.808 187.501 162.562 186.741 162.071 186.317C161.579 185.893 160.764 185.68 159.625 185.68C158.375 185.68 156.811 185.993 154.935 186.618L153.863 183.436C156.074 182.565 158.263 182.129 160.429 182.129C162.841 182.129 164.617 182.654 165.756 183.704C166.895 184.731 167.464 186.272 167.464 188.327V195.496ZM159.659 197.539C160.999 197.539 162.048 196.881 162.808 195.563V192.179H161.233C158.665 192.179 157.381 193.14 157.381 195.06C157.381 195.842 157.571 196.456 157.95 196.903C158.352 197.327 158.922 197.539 159.659 197.539Z" fill="black"/>
</svg>
