<svg width="232" height="217" viewBox="0 0 232 217" fill="none" xmlns="http://www.w3.org/2000/svg">
<path d="M115.21 78.2694C133.298 78.2694 147.96 62.3152 147.96 42.6347C147.96 22.9542 133.298 7 115.21 7C97.1231 7 82.4604 22.9542 82.4604 42.6347C82.4604 62.3152 97.1231 78.2694 115.21 78.2694Z" stroke="black" stroke-width="13.1"/>
<path d="M147.961 92.5232H150.266C155.055 92.5247 159.678 94.4287 163.267 97.8775C166.857 101.326 169.165 106.083 169.759 111.253L172.32 133.517C172.55 135.523 172.386 137.559 171.838 139.491C171.29 141.422 170.37 143.204 169.141 144.719C167.911 146.235 166.399 147.448 164.706 148.279C163.012 149.11 161.176 149.539 159.318 149.539H71.1028C69.2452 149.539 67.4086 149.11 65.7151 148.279C64.0216 147.448 62.5099 146.235 61.2803 144.719C60.0507 143.204 59.1313 141.422 58.5832 139.491C58.0351 137.559 57.8707 135.523 58.1011 133.517L60.6556 111.253C61.2497 106.08 63.56 101.322 67.1521 97.8728C70.7442 94.4236 75.3707 92.5212 80.1615 92.5232H82.4605" stroke="black" stroke-width="13.1" stroke-linecap="round" stroke-linejoin="round"/>
<path d="M25.0387 204.477H20.2147L19.7122 195.063C19.5559 192.249 19.4777 189.859 19.4777 187.894C19.4777 186.844 19.4889 186.085 19.5112 185.616L15.5917 201.998H10.9352L6.74775 185.583C6.83708 186.945 6.88175 188.475 6.88175 190.172C6.88175 191.981 6.83708 193.645 6.74775 195.164L6.24525 204.477H1.45475L3.26375 181.295H9.52825L13.3472 197.274L16.9317 181.295H23.2632L25.0387 204.477ZM42.2973 199.552C42.2973 200.244 42.3978 200.758 42.5988 201.093C42.7998 201.406 43.1348 201.64 43.6038 201.797L42.5988 204.946C41.5491 204.856 40.6893 204.611 40.0193 204.209C39.3716 203.807 38.8691 203.181 38.5118 202.333C37.3504 204.119 35.5749 205.013 33.1853 205.013C31.4209 205.013 30.0139 204.51 28.9643 203.505C27.9369 202.478 27.4233 201.149 27.4233 199.519C27.4233 197.576 28.1268 196.09 29.5338 195.063C30.9408 194.036 32.9619 193.522 35.5973 193.522H37.6408V192.651C37.6408 191.557 37.3951 190.797 36.9038 190.373C36.4124 189.949 35.5973 189.737 34.4583 189.737C33.2076 189.737 31.6443 190.049 29.7683 190.675L28.6963 187.492C30.9073 186.621 33.0959 186.186 35.2623 186.186C37.6743 186.186 39.4498 186.71 40.5888 187.76C41.7278 188.787 42.2973 190.328 42.2973 192.383V199.552ZM34.4918 201.596C35.8318 201.596 36.8814 200.937 37.6408 199.619V196.236H36.0663C33.4979 196.236 32.2138 197.196 32.2138 199.117C32.2138 199.898 32.4036 200.512 32.7833 200.959C33.1853 201.383 33.7548 201.596 34.4918 201.596ZM37.8753 176.772L39.7513 180.424L32.0463 183.506L30.7063 181.06L37.8753 176.772ZM52.6189 186.186C55.1203 186.186 57.2643 186.9 59.0509 188.33L57.2419 191.043C55.7456 190.105 54.2716 189.636 52.8199 189.636C52.0383 189.636 51.4353 189.781 51.0109 190.072C50.5866 190.362 50.3744 190.753 50.3744 191.244C50.3744 191.601 50.4638 191.903 50.6424 192.149C50.8434 192.394 51.2008 192.629 51.7144 192.852C52.2504 193.075 53.0433 193.343 54.0929 193.656C55.9689 194.17 57.3648 194.862 58.2804 195.733C59.1961 196.582 59.6539 197.754 59.6539 199.251C59.6539 200.434 59.3078 201.462 58.6154 202.333C57.9454 203.204 57.0298 203.874 55.8684 204.343C54.7071 204.789 53.4118 205.013 51.9824 205.013C50.4861 205.013 49.1238 204.789 47.8954 204.343C46.6671 203.874 45.6174 203.237 44.7464 202.433L47.0914 199.82C48.5878 200.981 50.1734 201.562 51.8484 201.562C52.7418 201.562 53.4453 201.395 53.9589 201.06C54.4949 200.702 54.7629 200.222 54.7629 199.619C54.7629 199.15 54.6624 198.782 54.4614 198.514C54.2604 198.246 53.8919 198 53.3559 197.777C52.8199 197.531 51.9824 197.252 50.8434 196.939C49.0568 196.448 47.7279 195.755 46.8569 194.862C46.0083 193.946 45.5839 192.819 45.5839 191.479C45.5839 190.474 45.8743 189.569 46.4549 188.765C47.0356 187.961 47.8508 187.336 48.9004 186.889C49.9724 186.42 51.2119 186.186 52.6189 186.186ZM76.8279 186.186C79.3292 186.186 81.4732 186.9 83.2599 188.33L81.4509 191.043C79.9546 190.105 78.4806 189.636 77.0289 189.636C76.2472 189.636 75.6442 189.781 75.2199 190.072C74.7956 190.362 74.5834 190.753 74.5834 191.244C74.5834 191.601 74.6727 191.903 74.8514 192.149C75.0524 192.394 75.4097 192.629 75.9234 192.852C76.4594 193.075 77.2522 193.343 78.3019 193.656C80.1779 194.17 81.5737 194.862 82.4894 195.733C83.4051 196.582 83.8629 197.754 83.8629 199.251C83.8629 200.434 83.5167 201.462 82.8244 202.333C82.1544 203.204 81.2387 203.874 80.0774 204.343C78.9161 204.789 77.6207 205.013 76.1914 205.013C74.6951 205.013 73.3327 204.789 72.1044 204.343C70.8761 203.874 69.8264 203.237 68.9554 202.433L71.3004 199.82C72.7967 200.981 74.3824 201.562 76.0574 201.562C76.9507 201.562 77.6542 201.395 78.1679 201.06C78.7039 200.702 78.9719 200.222 78.9719 199.619C78.9719 199.15 78.8714 198.782 78.6704 198.514C78.4694 198.246 78.1009 198 77.5649 197.777C77.0289 197.531 76.1914 197.252 75.0524 196.939C73.2657 196.448 71.9369 195.755 71.0659 194.862C70.2172 193.946 69.7929 192.819 69.7929 191.479C69.7929 190.474 70.0832 189.569 70.6639 188.765C71.2446 187.961 72.0597 187.336 73.1094 186.889C74.1814 186.42 75.4209 186.186 76.8279 186.186ZM94.4327 186.186C97.0904 186.186 99.1674 187.023 100.664 188.698C102.16 190.351 102.908 192.651 102.908 195.599C102.908 197.475 102.562 199.128 101.87 200.557C101.2 201.964 100.217 203.058 98.9217 203.84C97.6487 204.622 96.1412 205.013 94.3992 205.013C91.7415 205.013 89.6534 204.186 88.1347 202.534C86.6384 200.859 85.8902 198.547 85.8902 195.599C85.8902 193.723 86.2252 192.082 86.8952 190.675C87.5875 189.245 88.5702 188.14 89.8432 187.358C91.1385 186.576 92.6684 186.186 94.4327 186.186ZM94.4327 189.737C93.2267 189.737 92.3222 190.217 91.7192 191.177C91.1385 192.115 90.8482 193.589 90.8482 195.599C90.8482 197.609 91.1385 199.094 91.7192 200.055C92.3222 200.993 93.2155 201.462 94.3992 201.462C95.5829 201.462 96.465 200.993 97.0457 200.055C97.6487 199.094 97.9502 197.609 97.9502 195.599C97.9502 193.589 97.6599 192.115 97.0792 191.177C96.4985 190.217 95.6164 189.737 94.4327 189.737ZM116.14 186.186C118.217 186.186 119.825 187.012 120.964 188.665C122.125 190.317 122.706 192.629 122.706 195.599C122.706 197.43 122.416 199.061 121.835 200.49C121.277 201.897 120.462 203.003 119.39 203.807C118.34 204.611 117.1 205.013 115.671 205.013C113.728 205.013 112.176 204.253 111.015 202.735L110.747 204.477H106.526V179.653L111.283 179.117V188.631C111.841 187.872 112.544 187.28 113.393 186.856C114.242 186.409 115.157 186.186 116.14 186.186ZM114.331 201.495C116.609 201.495 117.748 199.53 117.748 195.599C117.748 193.433 117.469 191.914 116.911 191.043C116.375 190.15 115.593 189.703 114.566 189.703C113.293 189.703 112.198 190.462 111.283 191.981V199.586C112.064 200.859 113.08 201.495 114.331 201.495ZM135.661 186.219C136.197 186.219 136.789 186.308 137.436 186.487L136.632 191.077C136.007 190.92 135.482 190.842 135.058 190.842C134.008 190.842 133.193 191.211 132.612 191.948C132.032 192.685 131.574 193.801 131.239 195.298V204.477H126.482V186.722H130.602L131.038 190.172C131.462 188.921 132.076 187.95 132.88 187.258C133.707 186.565 134.633 186.219 135.661 186.219ZM153.791 195.197C153.791 195.42 153.757 196.035 153.69 197.04H142.602C142.758 198.648 143.193 199.787 143.908 200.457C144.623 201.127 145.594 201.462 146.823 201.462C147.582 201.462 148.297 201.339 148.967 201.093C149.637 200.847 150.362 200.457 151.144 199.921L153.121 202.601C151.133 204.209 148.888 205.013 146.387 205.013C143.595 205.013 141.451 204.175 139.955 202.5C138.459 200.825 137.711 198.558 137.711 195.7C137.711 193.891 138.023 192.271 138.648 190.842C139.296 189.39 140.223 188.251 141.429 187.425C142.657 186.599 144.109 186.186 145.784 186.186C148.308 186.186 150.273 186.978 151.68 188.564C153.087 190.15 153.791 192.361 153.791 195.197ZM149.067 193.857C149.067 190.909 148.006 189.435 145.885 189.435C144.902 189.435 144.131 189.804 143.573 190.541C143.037 191.255 142.713 192.428 142.602 194.058H149.067V193.857ZM190.805 181.295L186.752 204.477H180.353L177.137 186.353L173.754 204.477H167.523L163.503 181.295H168.427L171.074 200.658L174.591 181.295H179.784L183.167 200.658L186.149 181.295H190.805ZM206.166 199.552C206.166 200.244 206.266 200.758 206.467 201.093C206.668 201.406 207.003 201.64 207.472 201.797L206.467 204.946C205.418 204.856 204.558 204.611 203.888 204.209C203.24 203.807 202.738 203.181 202.38 202.333C201.219 204.119 199.444 205.013 197.054 205.013C195.29 205.013 193.883 204.51 192.833 203.505C191.806 202.478 191.292 201.149 191.292 199.519C191.292 197.576 191.995 196.09 193.402 195.063C194.809 194.036 196.831 193.522 199.466 193.522H201.509V192.651C201.509 191.557 201.264 190.797 200.772 190.373C200.281 189.949 199.466 189.737 198.327 189.737C197.076 189.737 195.513 190.049 193.637 190.675L192.565 187.492C194.776 186.621 196.965 186.186 199.131 186.186C201.543 186.186 203.318 186.71 204.457 187.76C205.596 188.787 206.166 190.328 206.166 192.383V199.552ZM198.36 201.596C199.7 201.596 200.75 200.937 201.509 199.619V196.236H199.935C197.367 196.236 196.082 197.196 196.082 199.117C196.082 199.898 196.272 200.512 196.652 200.959C197.054 201.383 197.623 201.596 198.36 201.596ZM215.014 205.013C213.562 205.013 212.434 204.599 211.63 203.773C210.826 202.924 210.424 201.73 210.424 200.189V179.653L215.181 179.117V200.055C215.181 200.836 215.505 201.227 216.153 201.227C216.51 201.227 216.823 201.16 217.091 201.026L218.062 204.41C217.146 204.812 216.13 205.013 215.014 205.013ZM231.124 203.639C230.476 204.086 229.739 204.421 228.913 204.644C228.109 204.89 227.305 205.013 226.501 205.013C224.669 204.99 223.285 204.465 222.347 203.438C221.409 202.411 220.94 200.903 220.94 198.916V190.072H218.293V186.722H220.94V182.836L225.697 182.266V186.722H229.784L229.315 190.072H225.697V198.815C225.697 199.664 225.842 200.278 226.132 200.658C226.423 201.037 226.869 201.227 227.472 201.227C228.075 201.227 228.745 201.026 229.482 200.624L231.124 203.639Z" fill="black"/>
</svg>
